<svg width="2093" height="465" viewBox="0 0 2093 465" fill="none" xmlns="http://www.w3.org/2000/svg">
<path d="M64.5572 291.351C60.1266 287.46 57.2909 282.63 56.4781 277.127C56.0539 274.255 53.5379 275.656 52.7485 273.969C50.8571 269.927 47.5999 266.192 46.944 262.012C46.4377 258.785 44.1265 258.311 42.954 256.417C39.4205 250.71 36.193 244.814 32.6536 238.7C31.8871 234.475 33.83 231.296 35.651 228.128C47.7735 207.044 59.9544 185.992 72.1146 164.929C102.015 113.137 131.903 61.3375 161.863 9.57939C163.285 7.1233 164.024 3.20972 167.631 3.45687C170.74 3.66996 171.513 7.26755 172.853 9.66666C189.427 39.3239 206.765 68.5373 223.917 97.8589C226.189 101.743 228.193 105.77 230.42 109.679C231.876 112.234 232.27 114.726 230.553 117.636C209.9 152.643 189.851 188.002 174.603 214.203C188.783 189.646 208.125 156.141 227.469 122.638C228.052 121.628 228.579 120.579 229.245 119.625C230.458 117.885 231.7 115.322 234.201 116.771C236.465 118.082 234.782 120.289 233.85 122.446C214.862 155.223 196.172 187.669 177.44 220.09C176.774 221.242 176.034 222.36 175.461 223.557C174.632 225.294 172.513 227.014 173.69 228.925C174.893 230.879 177.363 229.527 179.275 229.659C194.392 230.706 209.533 229.882 224.648 229.851C240.923 229.817 257.221 230.788 273.491 229.571C275.825 229.397 278.147 229.529 280.828 229.904C282.905 230.126 283.777 232.58 286.183 231.585C286.712 231.467 286.93 231.447 287.465 231.514C289.583 233.672 290.937 232.604 292.51 230.75C294.36 229.711 295.943 229.955 297.963 230.43C300.982 229.941 301.306 227.437 302.319 225.692C322.078 191.654 341.705 157.54 361.446 123.492C363.131 120.586 364.26 116.887 369.025 116.586C372.934 121.74 377.084 126.491 377.685 133.019C377.712 133.308 377.911 133.678 378.146 133.835C384.01 137.745 386.707 143.448 387.495 150.243C392.95 151.77 392.804 157.32 395.092 161.058C401.986 172.319 408.698 183.679 415.091 195.257C420.754 205.512 426.584 215.753 432.792 225.717C436.13 231.075 436.111 235.49 432.949 240.907C412.553 275.86 392.352 310.927 372.227 346.037C369.949 350.011 367.47 351.831 362.706 350.84C359.712 350.218 356.375 351.342 353.336 350.831C345.001 349.429 336.668 350.985 328.381 350.964C318.32 350.939 308.135 350.776 298.006 351.251C292.346 351.517 286.189 352.602 280.503 350.962C273.575 348.963 266.919 352.546 260.104 351.293C253.333 350.048 246.455 352.688 239.329 350.761C233.123 348.005 227.166 348.966 220.906 350.337C220.047 350.553 219.482 350.597 218.647 350.51C215.446 349.75 212.493 347.529 209.278 350.596C207.25 350.525 205.421 351.559 203.923 349.69C201.851 347.106 201.326 351.055 199.551 350.896C196.062 350.583 192.53 350.75 188.691 350.539C186.475 347.209 183.435 348.595 180.455 348.459C177.076 347.825 174.114 347.456 172.042 351.032C171.089 350.787 170.438 350.413 169.462 349.854C166.916 348.358 164.699 347.22 162.248 349.956C158.249 350.795 154.459 351.431 151.004 349.515C149.036 348.424 148.103 350.739 146.161 350.184C143.32 349.459 140.67 347.828 138.436 351.243C134.899 350.261 131.594 349.701 127.82 349.867C122.972 350.705 118.765 348.596 114.343 348.573C112.887 348.566 111.327 347.875 109.944 348.25C102.482 350.273 97.5165 345.918 92.3126 341.337C92.1522 341.005 92.3991 340.571 92.5229 340.355C92.3983 334.777 86.4874 324.327 82.4007 322.548C81.681 322.254 81.2979 322.031 80.6273 321.643C82.6507 314.573 78.016 310.379 74.0561 306.116C72.7459 304.705 72.0475 303.491 71.5643 301.621C70.5105 297.545 69.2323 293.363 64.5572 291.351Z" fill="#EEEDEE"/>
<path d="M629.417 201.318C628.411 197.589 626.931 194.304 624.978 191.464C623.025 188.563 620.628 186.107 617.787 184.095C614.946 182.083 611.691 180.573 608.022 179.567C604.352 178.502 600.327 177.969 595.948 177.969C587.129 177.969 579.494 180.1 573.043 184.361C566.651 188.623 561.709 194.837 558.217 203.005C554.725 211.113 552.979 220.968 552.979 232.568C552.979 244.228 554.666 254.171 558.039 262.398C561.413 270.624 566.296 276.898 572.688 281.219C579.08 285.539 586.833 287.699 595.948 287.699C603.997 287.699 610.803 286.397 616.367 283.793C621.989 281.13 626.251 277.371 629.151 272.518C632.051 267.665 633.501 261.954 633.501 255.384L641.669 256.361H597.457V224.312H675.848V248.371C675.848 264.647 672.386 278.585 665.461 290.185C658.596 301.786 649.126 310.693 637.052 316.907C625.037 323.122 611.218 326.229 595.593 326.229C578.251 326.229 563.011 322.471 549.872 314.954C536.733 307.438 526.493 296.725 519.154 282.817C511.815 268.849 508.146 252.277 508.146 233.101C508.146 218.186 510.365 204.958 514.804 193.417C519.243 181.816 525.428 171.992 533.359 163.942C541.349 155.893 550.582 149.797 561.058 145.654C571.593 141.511 582.927 139.439 595.06 139.439C605.595 139.439 615.39 140.949 624.446 143.967C633.56 146.986 641.609 151.247 648.593 156.751C655.636 162.255 661.348 168.795 665.728 176.371C670.107 183.947 672.83 192.263 673.895 201.318H629.417ZM735.463 323.743H688.233L749.579 141.925H808.084L869.43 323.743H822.2L779.497 187.735H778.077L735.463 323.743ZM729.16 252.188H827.881V285.569H729.16V252.188ZM889.005 141.925H943.426L989.591 254.496H991.722L1037.89 141.925H1092.31V323.743H1049.52V212.06H1048.01L1004.33 322.589H976.985L933.306 211.439H931.796V323.743H889.005V141.925ZM1119.72 323.743V141.925H1246.49V177.614H1163.66V214.901H1240.01V250.679H1163.66V288.054H1246.49V323.743H1119.72ZM1315.3 141.925L1355.96 275.093H1357.47L1398.13 141.925H1447.31L1385.96 323.743H1327.46L1266.11 141.925H1315.3ZM1466.89 323.743V141.925H1593.66V177.614H1510.83V214.901H1587.18V250.679H1510.83V288.054H1593.66V323.743H1466.89ZM1621.18 323.743V141.925H1696.29C1709.9 141.925 1721.65 144.381 1731.53 149.294C1741.48 154.147 1749.14 161.131 1754.53 170.246C1759.91 179.301 1762.61 190.043 1762.61 202.472C1762.61 215.079 1759.85 225.791 1754.35 234.61C1748.85 243.369 1741.03 250.057 1730.91 254.674C1720.79 259.231 1708.81 261.51 1694.96 261.51H1647.46V226.886H1686.79C1693.42 226.886 1698.95 226.028 1703.39 224.312C1707.89 222.536 1711.29 219.873 1713.6 216.322C1715.91 212.711 1717.06 208.095 1717.06 202.472C1717.06 196.849 1715.91 192.203 1713.6 188.534C1711.29 184.805 1707.89 182.023 1703.39 180.189C1698.89 178.295 1693.36 177.348 1686.79 177.348H1665.13V323.743H1621.18ZM1723.54 240.647L1768.82 323.743H1720.88L1676.49 240.647H1723.54ZM1884.99 196.435C1884.4 189.925 1881.76 184.864 1877.09 181.254C1872.47 177.585 1865.87 175.75 1857.29 175.75C1851.61 175.75 1846.87 176.49 1843.08 177.969C1839.3 179.449 1836.46 181.491 1834.56 184.095C1832.67 186.64 1831.69 189.57 1831.63 192.884C1831.51 195.607 1832.05 198.004 1833.23 200.075C1834.47 202.147 1836.25 203.981 1838.56 205.579C1840.92 207.118 1843.77 208.479 1847.08 209.663C1850.39 210.847 1854.12 211.883 1858.27 212.77L1873.89 216.322C1882.89 218.275 1890.82 220.879 1897.68 224.134C1904.61 227.389 1910.41 231.266 1915.08 235.764C1919.82 240.262 1923.4 245.441 1925.83 251.3C1928.25 257.16 1929.5 263.729 1929.55 271.009C1929.5 282.491 1926.6 292.345 1920.85 300.572C1915.11 308.799 1906.86 315.102 1896.09 319.482C1885.37 323.862 1872.44 326.052 1857.29 326.052C1842.08 326.052 1828.82 323.773 1817.52 319.216C1806.21 314.658 1797.42 307.734 1791.15 298.442C1784.88 289.149 1781.65 277.401 1781.47 263.197H1823.55C1823.91 269.056 1825.48 273.939 1828.26 277.845C1831.04 281.751 1834.86 284.711 1839.71 286.723C1844.62 288.735 1850.31 289.741 1856.76 289.741C1862.68 289.741 1867.71 288.942 1871.85 287.344C1876.05 285.746 1879.28 283.527 1881.53 280.686C1883.77 277.845 1884.93 274.59 1884.99 270.92C1884.93 267.487 1883.86 264.558 1881.79 262.131C1879.72 259.645 1876.52 257.515 1872.2 255.739C1867.94 253.904 1862.5 252.218 1855.87 250.679L1836.87 246.24C1821.13 242.63 1808.73 236.8 1799.67 228.751C1790.62 220.642 1786.12 209.693 1786.18 195.903C1786.12 184.657 1789.14 174.803 1795.23 166.339C1801.33 157.876 1809.76 151.277 1820.53 146.542C1831.31 141.807 1843.59 139.439 1857.38 139.439C1871.46 139.439 1883.69 141.836 1894.04 146.63C1904.46 151.365 1912.54 158.024 1918.28 166.606C1924.02 175.188 1926.95 185.131 1927.07 196.435H1884.99ZM1951.75 323.743V141.925H2078.52V177.614H1995.69V214.901H2072.04V250.679H1995.69V288.054H2078.52V323.743H1951.75Z" fill="#EEEDEE"/>
</svg>
